<?xml version="1.0" encoding="utf-8"?>
<!-- Generator: Adobe Illustrator 23.1.1, SVG Export Plug-In . SVG Version: 6.00 Build 0)  -->
<svg version="1.1" id="Layer_1" xmlns="http://www.w3.org/2000/svg" xmlns:xlink="http://www.w3.org/1999/xlink" x="0px"
     y="0px"
     viewBox="0 0 139 139" style="enable-background:new 0 0 139 139;" xml:space="preserve">
<style type="text/css">
	.st0{clip-path:url(#SVGID_2_);}
	.st1{fill:#0872B9;}
	.st2{clip-path:url(#SVGID_4_);}
	.st3{fill:#28AAE1;}
	.st4{clip-path:url(#SVGID_6_);}
	.st5{clip-path:url(#SVGID_8_);}
	.st6{fill:#2EB9FF;}
</style>
    <g id="Group_681" transform="translate(-4339 -30)">
	<g id="Group_674">
		<g id="Group_670">

				<image style="overflow:visible;opacity:0.2;enable-background:new    ;" width="66" height="53"
                       id="Rectangle_288" xlink:href="7264B259512DB129.png" transform="matrix(1 0 0 1 4374 60)">
			</image>
            <g id="Group_669">
				<g id="Group_667">
					<g id="Group_660">
						<g>
							<defs>
								<rect id="SVGID_1_" x="4392" y="79" width="28" height="23"/>
							</defs>
                            <clipPath id="SVGID_2_">
								<use xlink:href="#SVGID_1_" style="overflow:visible;"/>
							</clipPath>
                            <g id="Group_659" class="st0">
								<rect id="Rectangle_289" x="4391" y="78" class="st1" width="31" height="25"/>
							</g>
						</g>
					</g>
                    <g id="Group_662">
						<g>
							<defs>
								<path id="SVGID_3_" d="M4420,79h-27.9c0-7.8,6.3-14.1,14.1-14.1s14.1,6.3,14.1,14.1"/>
							</defs>
                            <clipPath id="SVGID_4_">
								<use xlink:href="#SVGID_3_" style="overflow:visible;"/>
							</clipPath>
                            <g id="Group_661" class="st2">
								<rect id="Rectangle_291" x="4391" y="63" class="st3" width="31" height="17"/>
							</g>
						</g>
					</g>
                    <g id="Group_664">
						<g>
							<defs>
								<path id="SVGID_5_" d="M4392,79v22.6c-6.3,0-11.4-5.1-11.4-11.4s5.1-11.4,11.4-11.4"/>
							</defs>
                            <clipPath id="SVGID_6_">
								<use xlink:href="#SVGID_5_" style="overflow:visible;"/>
							</clipPath>
                            <g id="Group_663" class="st4">
								<rect id="Rectangle_292" x="4379" y="78" class="st3" width="14" height="25"/>
							</g>
						</g>
					</g>
                    <g id="Group_666">
						<g>
							<defs>
								<path id="SVGID_7_" d="M4420,79v22.6c6.3,0,11.4-5.1,11.4-11.4s-5.1-11.4-11.4-11.4"/>
							</defs>
                            <clipPath id="SVGID_8_">
								<use xlink:href="#SVGID_7_" style="overflow:visible;"/>
							</clipPath>
                            <g id="Group_665" class="st5">
								<rect id="Rectangle_293" x="4419" y="78" class="st3" width="14" height="25"/>
							</g>
						</g>
					</g>
				</g>
			</g>
		</g>
        <g id="Group_673">

				<image style="overflow:visible;opacity:0.2;enable-background:new    ;" width="139" height="36"
                       id="Rectangle_294" xlink:href="7264B259512DB12F.png" transform="matrix(1 0 0 1 4339 102)">
			</image>
            <g id="Group_672">
				<g id="Group_671">
					<path id="Path_394" class="st6" d="M4353.1,128.5c-2.1,0.1-4.1-0.6-5.7-1.9c-1.5-1.3-2.4-3.2-2.4-5.2l0-0.4h1.8l0,0.4
						c0,1.5,0.7,3,1.8,4c1.3,1.1,2.9,1.6,4.5,1.5c1.5,0.1,3-0.3,4.2-1.1c1.2-0.7,1.9-1.9,1.9-3.3c0.1-1.4-0.7-2.6-1.9-3.3
						c-1.4-0.7-2.9-1.2-4.5-1.5l-0.1,0l0,0c0,0-0.1,0-0.3-0.1c-2.7-0.7-4.4-1.3-5.1-2c-1.1-0.9-1.8-2.3-1.8-3.7
						c-0.1-1.7,0.8-3.4,2.2-4.4c1.5-1,3.2-1.5,5-1.4c1.9-0.1,3.8,0.5,5.4,1.7c1.4,1.2,2.3,2.9,2.3,4.8l0,0.4h-1.8l0-0.4
						c0-1.4-0.6-2.8-1.7-3.6c-1.2-0.9-2.7-1.3-4.2-1.3c-1.4-0.1-2.7,0.3-3.9,1.1c-1,0.7-1.6,1.9-1.5,3.1c0,1,0.5,1.9,1.3,2.5
						c1.3,0.8,2.8,1.3,4.3,1.6l0,0l0,0l0,0c0,0,0,0,0.1,0c0.1,0,0.2,0,0.3,0.1c1.8,0.4,3.5,0.9,5.1,1.7c1.6,0.8,2.6,2.5,2.6,4.3
						c0.1,1.9-0.8,3.7-2.4,4.8C4357,128.1,4355,128.6,4353.1,128.5z"/>
                    <path id="Path_395" class="st6" d="M4363,128v-20h2v4h3v2h-3v14L4363,128z"/>
                    <path id="Path_396" class="st6" d="M4375.7,128.6c-2.3,0.1-4.5-0.8-6-2.5c-1.3-1.7-2-3.8-1.9-5.9c-0.1-2.1,0.6-4.2,1.9-5.9
						c1.5-1.8,3.7-2.7,6-2.6c2.3-0.1,4.5,0.8,6,2.6c1.3,1.7,2,3.8,1.9,5.9c0.1,2.1-0.6,4.2-1.9,5.9
						C4380.2,127.8,4378,128.7,4375.7,128.6z M4375.7,113.3c-1.8-0.1-3.5,0.6-4.6,2.1c-1,1.4-1.5,3.1-1.4,4.8
						c-0.1,1.7,0.4,3.4,1.4,4.8c1.1,1.4,2.8,2.2,4.6,2.1c1.8,0.1,3.5-0.7,4.7-2.1c1.9-2.9,1.9-6.6,0-9.6
						C4379.2,114,4377.5,113.2,4375.7,113.3z"/>
                    <path id="Path_397" class="st6" d="M4386,128v-16h2v1.7c0,0,2.3-1.7,4.6-1.7h0.9l-1.3,1h0.7c-0.6,0-1.2,0-1.7,0.2
						c-0.9,0.3-1.7,0.8-2.3,1.5c-0.6,0.6-0.9,1.5-0.9,2.4v11L4386,128z"/>
                    <path id="Path_398" class="st6" d="M4400.5,129c-2.3,0.1-4.4-0.8-5.8-2.6c-1.2-1.7-1.8-3.8-1.8-5.9c-0.1-2.1,0.5-4.1,1.8-5.8
						c1.4-1.8,3.6-2.8,5.8-2.7c2.2-0.1,4.3,0.7,5.7,2.4c1.3,1.6,1.9,3.6,1.8,5.6v1h-13.2c0,1.6,0.5,3.1,1.4,4.3
						c2,2.4,5.6,2.7,8.1,0.7c0.6-0.5,1.1-1.2,1.5-1.9l0.2-0.4l1.6,0.8l-0.1,0.3c-0.5,1.1-1.2,2.1-2.2,2.8
						C4403.7,128.6,4402.1,129,4400.5,129z M4405.8,119c0-1.4-0.5-2.7-1.3-3.8c-1-1.2-2.5-1.9-4.1-1.8c-1.6-0.1-3.2,0.6-4.3,1.8
						c-0.9,1.1-1.4,2.4-1.5,3.9H4405.8z"/>
                    <path id="Path_399" class="st6" d="M4426.8,128l-5.5-14.1l-5.5,14.1h-1.7l-6.5-22h2l5.4,18.5l5.4-13.5h1.6l5.4,13.5l5.4-18.5h2
						l-6.5,22H4426.8z"/>
                    <path id="Path_400" class="st6" d="M4436,128v-16h2v16H4436z M4437.4,108.3c-0.6,0-1.1-0.5-1.1-1.1c0-0.6,0.5-1.1,1.1-1.1
						c0.6,0,1.1,0.5,1.1,1.1c0.1,0.5-0.3,1-0.9,1.1C4437.6,108.3,4437.5,108.3,4437.4,108.3L4437.4,108.3z"/>
                    <path id="Path_401" class="st6" d="M4447.6,128.6c-1.7,0.1-3.3-0.4-4.7-1.3c-1.3-0.9-2.1-2.4-2.2-4l0-0.3h1.7l0.1,0.3
						c0.5,2.6,2.2,3.8,5.1,3.8c1.1,0,2.2-0.2,3.2-0.8c0.9-0.4,1.5-1.4,1.4-2.4c0-1.2-1-2.1-3.1-2.6l-0.3-0.1c-0.1,0-0.3-0.1-0.5-0.1
						c-2-0.3-3.8-1-5.6-1.9c-1-0.7-1.6-1.8-1.6-3c0-1.5,0.8-2.8,2.1-3.5c1.3-0.7,2.7-1,4.2-1c1.5-0.1,2.9,0.4,4.2,1.2
						c1.1,0.9,1.9,2.2,2,3.6l0.1,0.5h-1.9l0-0.4c-0.3-2.2-1.8-3.3-4.4-3.3c-1,0-2,0.2-2.9,0.7c-0.8,0.4-1.3,1.2-1.3,2.1
						c0,1.3,1.6,2.4,4.9,3.1l0.1,0l0,0c0,0,0.1-0.2,0.1-0.2h0l0,0.3c1.3,0.2,2.6,0.7,3.9,1.3c1.2,0.7,2,1.9,1.9,3.3
						c0,1.5-0.8,2.9-2.1,3.6C4450.6,128.3,4449.1,128.7,4447.6,128.6z"/>
                    <path id="Path_402" class="st6" d="M4462.5,129c-2.3,0.1-4.4-0.8-5.8-2.6c-1.2-1.7-1.8-3.8-1.8-5.9c-0.1-2.1,0.5-4.1,1.8-5.8
						c1.4-1.8,3.6-2.8,5.8-2.7c2.2-0.1,4.3,0.7,5.7,2.4c1.3,1.6,1.9,3.6,1.8,5.6v1h-13.2c0,1.6,0.5,3.1,1.4,4.3
						c2,2.4,5.6,2.7,8.1,0.7c0.6-0.5,1.1-1.2,1.5-1.9l0.2-0.4l1.6,0.8l-0.1,0.3c-0.5,1.1-1.2,2.1-2.2,2.8
						C4465.7,128.6,4464.1,129,4462.5,129z M4468.6,119c0-1.4-0.5-2.7-1.3-3.8c-1-1.2-2.5-1.9-4.1-1.8c-1.6-0.1-3.2,0.6-4.3,1.8
						c-0.9,1.1-1.4,2.4-1.5,3.9H4468.6z"/>
				</g>
			</g>
		</g>
	</g>
</g>
</svg>
